0
SECTION
2
HEADER
9
$INSUNITS
70
4
9
$ACADVER
1
AC1014
9
$HANDSEED
5
FFFF
0
ENDSEC
0
SECTION
2
TABLES
0
TABLE
2
VPORT
5
8
100
AcDbSymbolTable
0
ENDTAB
0
TABLE
2
LTYPE
5
5
100
AcDbSymbolTable
0
LTYPE
5
14
100
AcDbSymbolTableRecord
100
AcDbLinetypeTableRecord
2
BYBLOCK
70
0
0
LTYPE
5
15
100
AcDbSymbolTableRecord
100
AcDbLinetypeTableRecord
2
BYLAYER
70
0
0
LTYPE
5
16
100
AcDbSymbolTableRecord
100
AcDbLinetypeTableRecord
2
DASHED
70
0
3
Dashed __ __ __ __ __ __ __ __ __ __ __ __ __ _
72
65
73
2
40
0.75
49
0.5
74
0
49
-0.25
74
0
0
ENDTAB
0
TABLE
2
LAYER
5
2
100
AcDbSymbolTable
70
3
0
LAYER
5
50
100
AcDbSymbolTableRecord
100
AcDbLayerTableRecord
2
1
70
0
62
7
6
DASHED
0
LAYER
5
51
100
AcDbSymbolTableRecord
100
AcDbLayerTableRecord
2
0
70
0
62
7
6
CONTINUOUS
0
ENDTAB
0
TABLE
2
STYLE
5
3
100
AcDbSymbolTable
70
1
0
STYLE
5
11
100
AcDbSymbolTableRecord
100
AcDbTextStyleTableRecord
2
STANDARD
70
0
0
ENDTAB
0
TABLE
2
VIEW
5
6
100
AcDbSymbolTable
70
0
0
ENDTAB
0
TABLE
2
UCS
5
7
100
AcDbSymbolTable
70
0
0
ENDTAB
0
TABLE
2
APPID
5
9
100
AcDbSymbolTable
70
2
0
APPID
5
12
100
AcDbSymbolTableRecord
100
AcDbRegAppTableRecord
2
ACAD
70
0
0
ENDTAB
0
TABLE
2
DIMSTYLE
5
A
100
AcDbSymbolTable
70
1
0
ENDTAB
0
TABLE
2
BLOCK_RECORD
5
1
100
AcDbSymbolTable
70
1
0
BLOCK_RECORD
5
1F
100
AcDbSymbolTableRecord
100
AcDbBlockTableRecord
2
*MODEL_SPACE
0
BLOCK_RECORD
5
1B
100
AcDbSymbolTableRecord
100
AcDbBlockTableRecord
2
*PAPER_SPACE
0
ENDTAB
0
ENDSEC
0
SECTION
2
BLOCKS
0
BLOCK
5
20
100
AcDbEntity
100
AcDbBlockBegin
2
*MODEL_SPACE
0
ENDBLK
5
21
100
AcDbEntity
100
AcDbBlockEnd
0
BLOCK
5
1C
100
AcDbEntity
100
AcDbBlockBegin
2
*PAPER_SPACE
0
ENDBLK
5
1D
100
AcDbEntity
100
AcDbBlockEnd
0
ENDSEC
0
SECTION
2
ENTITIES
0
SPLINE
5
100
100
AcDbEntity
8
0
100
AcDbSpline
70
0
71
3
72
16
73
12
74
0
42
0.000000001
43
0.0000000001
44
0.0000000001
40
0
40
0
40
0
40
0
40
0.087994581572138617
40
0.087994581572138617
40
0.15977047881926398
40
0.15977047881926398
40
0.22796846915740698
40
0.22796846915740698
40
0.27392718319932768
40
0.27392718319932768
40
0.32073344234629036
40
0.32073344234629036
40
0.32073344234629036
40
0.32073344234629036
10
-383.99999991059389
20
-405.93933982819607
30
-5.440092820663267e-14
10
-384.29331518250092
20
-405.93933982819607
30
-5.440092820663267e-14
10
-384.58535533843724
20
-405.89150497324914
30
-5.2735593669694936e-14
10
-385.07726006521233
20
-405.69145328261538
30
-5.2735593669694936e-14
10
-385.27704840382501
20
-405.56283293272611
30
-5.2180482157382357e-14
10
-385.6069884671931
20
-405.23542140363679
30
-5.2180482157382357e-14
10
-385.73263072821049
20
-405.04786057207411
30
-5.2180482157382357e-14
10
-385.88428756049183
20
-404.70013798718838
30
-5.2180482157382357e-14
10
-385.92832123900484
20
-404.5535536177922
30
-5.3290705182007514e-14
10
-385.98652495836473
20
-404.25069637363993
30
-5.3290705182007514e-14
10
-385.99999991059383
20
-404.09501740472336
30
-5.6066262743570405e-14
10
-385.99999991059383
20
-403.93933982819601
30
-5.6066262743570405e-14
0
LINE
5
101
100
AcDbEntity
8
0
100
AcDbLine
10
-383.99999991059389
20
-405.93933982819607
30
-5.440092820663267e-14
11
-341.99999991059383
21
-405.93933982819607
31
-6.3837823915946501e-14
0
SPLINE
5
102
100
AcDbEntity
8
0
100
AcDbSpline
70
0
71
3
72
16
73
12
74
0
42
0.000000001
43
0.0000000001
44
0.0000000001
40
0
40
0
40
0
40
0
40
0.087994581572112637
40
0.087994581572112637
40
0.15977047881917383
40
0.15977047881917383
40
0.22796846915725699
40
0.22796846915725699
40
0.27392718319912918
40
0.27392718319912918
40
0.32073344234602635
40
0.32073344234602635
40
0.32073344234602635
40
0.32073344234602635
10
-339.99999991059383
20
-403.93933982819601
30
-5.773159728050814e-14
10
-339.99999991059383
20
-404.2326551001031
30
-5.773159728050814e-14
10
-340.04783476554076
20
-404.52469525603937
30
-5.773159728050814e-14
10
-340.24788645617446
20
-405.01659998281445
30
-5.773159728050814e-14
10
-340.37650680606373
20
-405.21638832142719
30
-5.7176485768195562e-14
10
-340.70391833515311
20
-405.54632838479534
30
-5.7176485768195562e-14
10
-340.89147916671595
20
-405.67197064581279
30
-5.773159728050814e-14
10
-341.23920175160157
20
-405.82362747809407
30
-5.773159728050814e-14
10
-341.38578612099764
20
-405.86766115660708
30
-5.7176485768195562e-14
10
-341.68864336515009
20
-405.92586487596697
30
-5.7176485768195562e-14
10
-341.84432233406653
20
-405.93933982819607
30
-5.773159728050814e-14
10
-341.99999991059383
20
-405.93933982819607
30
-5.773159728050814e-14
0
LINE
5
103
100
AcDbEntity
8
0
100
AcDbLine
10
-339.99999991059383
20
-403.93933982819601
30
-5.773159728050814e-14
11
-339.99999991059383
21
-265.93933982819607
31
-5.6621374255882984e-14
0
SPLINE
5
104
100
AcDbEntity
8
0
100
AcDbSpline
70
0
71
3
72
16
73
12
74
0
42
0.000000001
43
0.0000000001
44
0.0000000001
40
0
40
0
40
0
40
0
40
0.087994581572170411
40
0.087994581572170411
40
0.15977047881920975
40
0.15977047881920975
40
0.22796846915721952
40
0.22796846915721952
40
0.27392718319904008
40
0.27392718319904008
40
0.32073344234590856
40
0.32073344234590856
40
0.32073344234590856
40
0.32073344234590856
10
-341.99999991059383
20
-263.93933982819601
30
-5.7176485768195562e-14
10
-341.70668463868662
20
-263.93933982819601
30
-5.7176485768195562e-14
10
-341.41464448275042
20
-263.987174683143
30
-5.8286708792820718e-14
10
-340.92273975597573
20
-264.18722637377664
30
-5.8286708792820718e-14
10
-340.72295141736276
20
-264.31584672366586
30
-5.6621374255882984e-14
10
-340.39301135399455
20
-264.64325825275534
30
-5.6621374255882984e-14
10
-340.26736909297711
20
-264.83081908431814
30
-5.7176485768195562e-14
10
-340.11571226069583
20
-265.17854166920387
30
-5.7176485768195562e-14
10
-340.07167858218281
20
-265.32512603859999
30
-5.7176485768195562e-14
10
-340.01347486282299
20
-265.62798328275233
30
-5.7176485768195562e-14
10
-339.99999991059383
20
-265.78366225166883
30
-5.7176485768195562e-14
10
-339.99999991059383
20
-265.93933982819607
30
-5.7176485768195562e-14
0
LINE
5
105
100
AcDbEntity
8
0
100
AcDbLine
10
-341.99999991059383
20
-263.93933982819601
30
-5.7176485768195562e-14
11
-383.99999991059389
21
-263.93933982819601
31
-5.6621374255882984e-14
0
SPLINE
5
106
100
AcDbEntity
8
0
100
AcDbSpline
70
0
71
3
72
16
73
12
74
0
42
0.000000001
43
0.0000000001
44
0.0000000001
40
0
40
0
40
0
40
0
40
0.087994581572124669
40
0.087994581572124669
40
0.15977047881920858
40
0.15977047881920858
40
0.22796846915730745
40
0.22796846915730745
40
0.27392718319914511
40
0.27392718319914511
40
0.32073344234591
40
0.32073344234591
40
0.32073344234591
40
0.32073344234591
10
-385.99999991059383
20
-265.93933982819601
30
-5.7176485768195562e-14
10
-385.99999991059383
20
-265.64602455628892
30
-5.7176485768195562e-14
10
-385.95216505564701
20
-265.35398440035272
30
-5.7176485768195562e-14
10
-385.7521133650132
20
-264.86207967357768
30
-5.7176485768195562e-14
10
-385.62349301512393
20
-264.66229133496489
30
-5.773159728050814e-14
10
-385.2960814860345
20
-264.33235127159674
30
-5.773159728050814e-14
10
-385.1085206544717
20
-264.20670901057935
30
-5.773159728050814e-14
10
-384.76079806958626
20
-264.05505217829818
30
-5.773159728050814e-14
10
-384.61421370019031
20
-264.01101849978505
30
-5.773159728050814e-14
10
-384.31135645603763
20
-263.95281478042511
30
-5.773159728050814e-14
10
-384.15567748712107
20
-263.93933982819601
30
-5.7176485768195562e-14
10
-383.99999991059389
20
-263.93933982819601
30
-5.7176485768195562e-14
0
LINE
5
107
100
AcDbEntity
8
0
100
AcDbLine
10
-385.99999991059383
20
-265.93933982819601
30
-5.7176485768195562e-14
11
-385.99999991059383
21
-403.93933982819601
31
-5.6066262743570405e-14
0
ENDSEC
0
SECTION
2
OBJECTS
0
DICTIONARY
5
C
100
AcDbDictionary
3
ACAD_GROUP
350
D
3
ACAD_MLINESTYLE
350
17
0
DICTIONARY
5
D
100
AcDbDictionary
0
DICTIONARY
5
1A
330
C
100
AcDbDictionary
0
DICTIONARY
5
17
100
AcDbDictionary
0
ENDSEC
0
EOF
