0
SECTION
2
HEADER
9
$INSUNITS
70
4
9
$ACADVER
1
AC1014
9
$HANDSEED
5
FFFF
0
ENDSEC
0
SECTION
2
TABLES
0
TABLE
2
VPORT
5
8
100
AcDbSymbolTable
0
ENDTAB
0
TABLE
2
LTYPE
5
5
100
AcDbSymbolTable
0
LTYPE
5
14
100
AcDbSymbolTableRecord
100
AcDbLinetypeTableRecord
2
BYBLOCK
70
0
0
LTYPE
5
15
100
AcDbSymbolTableRecord
100
AcDbLinetypeTableRecord
2
BYLAYER
70
0
0
LTYPE
5
16
100
AcDbSymbolTableRecord
100
AcDbLinetypeTableRecord
2
DASHED
70
0
3
Dashed __ __ __ __ __ __ __ __ __ __ __ __ __ _
72
65
73
2
40
0.75
49
0.5
74
0
49
-0.25
74
0
0
ENDTAB
0
TABLE
2
LAYER
5
2
100
AcDbSymbolTable
70
3
0
LAYER
5
50
100
AcDbSymbolTableRecord
100
AcDbLayerTableRecord
2
1
70
0
62
7
6
DASHED
0
LAYER
5
51
100
AcDbSymbolTableRecord
100
AcDbLayerTableRecord
2
0
70
0
62
7
6
CONTINUOUS
0
ENDTAB
0
TABLE
2
STYLE
5
3
100
AcDbSymbolTable
70
1
0
STYLE
5
11
100
AcDbSymbolTableRecord
100
AcDbTextStyleTableRecord
2
STANDARD
70
0
0
ENDTAB
0
TABLE
2
VIEW
5
6
100
AcDbSymbolTable
70
0
0
ENDTAB
0
TABLE
2
UCS
5
7
100
AcDbSymbolTable
70
0
0
ENDTAB
0
TABLE
2
APPID
5
9
100
AcDbSymbolTable
70
2
0
APPID
5
12
100
AcDbSymbolTableRecord
100
AcDbRegAppTableRecord
2
ACAD
70
0
0
ENDTAB
0
TABLE
2
DIMSTYLE
5
A
100
AcDbSymbolTable
70
1
0
ENDTAB
0
TABLE
2
BLOCK_RECORD
5
1
100
AcDbSymbolTable
70
1
0
BLOCK_RECORD
5
1F
100
AcDbSymbolTableRecord
100
AcDbBlockTableRecord
2
*MODEL_SPACE
0
BLOCK_RECORD
5
1B
100
AcDbSymbolTableRecord
100
AcDbBlockTableRecord
2
*PAPER_SPACE
0
ENDTAB
0
ENDSEC
0
SECTION
2
BLOCKS
0
BLOCK
5
20
100
AcDbEntity
100
AcDbBlockBegin
2
*MODEL_SPACE
0
ENDBLK
5
21
100
AcDbEntity
100
AcDbBlockEnd
0
BLOCK
5
1C
100
AcDbEntity
100
AcDbBlockBegin
2
*PAPER_SPACE
0
ENDBLK
5
1D
100
AcDbEntity
100
AcDbBlockEnd
0
ENDSEC
0
SECTION
2
ENTITIES
0
ARC
5
100
100
AcDbEntity
8
0
100
AcDbCircle
10
317
20
-397.99999991059286
30
1.4432899320127035e-14
40
1.9999999999999929
210
0
220
0
230
1
100
AcDbArc
50
180
51
270
0
LINE
5
101
100
AcDbEntity
8
0
100
AcDbLine
10
317
20
-399.99999991059292
30
1.4432899320127035e-14
11
377.50000668447342
21
-399.99999991059292
31
0
0
SPLINE
5
102
100
AcDbEntity
8
0
100
AcDbSpline
70
0
71
3
72
16
73
12
74
0
42
0.000000001
43
0.0000000001
44
0.0000000001
40
0
40
0
40
0
40
0
40
0.087994581572113775
40
0.087994581572113775
40
0.15977047881917927
40
0.15977047881917927
40
0.22796846915727598
40
0.22796846915727598
40
0.27392718319917841
40
0.27392718319917841
40
0.32073344234611173
40
0.32073344234611173
40
0.32073344234611173
40
0.32073344234611173
10
379.50000668447342
20
-397.99999991059286
30
1.4988010832439613e-14
10
379.50000668447342
20
-398.29331518249995
30
1.4988010832439613e-14
10
379.45217182952661
20
-398.58535533843622
30
1.4432899320127035e-14
10
379.25212013889279
20
-399.07726006521131
30
1.4432899320127035e-14
10
379.12349978900357
20
-399.27704840382404
30
1.4432899320127035e-14
10
378.7960882599142
20
-399.6069884671922
30
1.4432899320127035e-14
10
378.60852742835135
20
-399.73263072820953
30
1.4988010832439613e-14
10
378.26080484346573
20
-399.88428756049086
30
1.4988010832439613e-14
10
378.11422047406961
20
-399.92832123900394
30
1.4988010832439613e-14
10
377.81136322991722
20
-399.98652495836382
30
1.4988010832439613e-14
10
377.6556842610006
20
-399.99999991059292
30
1.4988010832439613e-14
10
377.50000668447342
20
-399.99999991059292
30
1.4988010832439613e-14
0
LINE
5
103
100
AcDbEntity
8
0
100
AcDbLine
10
379.50000668447342
20
-397.99999991059286
30
1.4988010832439613e-14
11
379.50000668447342
21
-366.99999991059292
31
0
0
ARC
5
104
100
AcDbEntity
8
0
100
AcDbCircle
10
377.50000668447342
20
-366.99999991059292
30
1.4432899320127035e-14
40
2.0000000000000284
210
7.216449660063415e-15
220
0
230
1
100
AcDbArc
50
0
51
90
0
LINE
5
105
100
AcDbEntity
8
0
100
AcDbLine
10
377.50000668447342
20
-364.99999991059292
30
1.4432899320127035e-14
11
371.50000668447348
21
-364.99999991059292
31
1.4432899320127035e-14
0
ARC
5
106
100
AcDbEntity
8
0
100
AcDbCircle
10
371.50000668447348
20
-362.99999991059286
30
1.4432899320127035e-14
40
2.0000000000000284
210
0
220
0
230
1
100
AcDbArc
50
180
51
270
0
LINE
5
107
100
AcDbEntity
8
0
100
AcDbLine
10
369.50000668447342
20
-362.99999991059286
30
1.4432899320127035e-14
11
369.50000668447342
21
-361.99999991059292
31
1.4432899320127035e-14
0
ARC
5
108
100
AcDbEntity
8
0
100
AcDbCircle
10
371.50000668447348
20
-361.99999991059292
30
1.4432899320127035e-14
40
2.0000000000000284
210
0
220
-0
230
1
100
AcDbArc
50
90
51
180
0
LINE
5
109
100
AcDbEntity
8
0
100
AcDbLine
10
371.50000668447348
20
-359.99999991059292
30
1.4432899320127035e-14
11
377.50000668447342
21
-359.99999991059292
31
1.4432899320127035e-14
0
ARC
5
110
100
AcDbEntity
8
0
100
AcDbCircle
10
377.50000668447342
20
-357.99999991059286
30
1.4432899320127035e-14
40
2.0000000000000284
210
0
220
0
230
1
100
AcDbArc
50
-90
51
0
0
LINE
5
111
100
AcDbEntity
8
0
100
AcDbLine
10
379.50000668447342
20
-357.99999991059286
30
1.4432899320127035e-14
11
379.50000668447342
21
-335.99999991059292
31
6.6613381477509392e-15
0
SPLINE
5
112
100
AcDbEntity
8
0
100
AcDbSpline
70
0
71
3
72
16
73
12
74
0
42
0.000000001
43
0.0000000001
44
0.0000000001
40
0
40
0
40
0
40
0
40
0.087994581572113859
40
0.087994581572113859
40
0.15977047881917786
40
0.15977047881917786
40
0.2279684691572641
40
0.2279684691572641
40
0.27392718319915593
40
0.27392718319915593
40
0.3207334423460827
40
0.3207334423460827
40
0.3207334423460827
40
0.3207334423460827
10
377.50000668447342
20
-333.99999991059292
30
1.3877787807814457e-14
10
377.79332195638051
20
-333.99999991059292
30
1.3877787807814457e-14
10
378.08536211231677
20
-334.04783476553973
30
1.27675647831893e-14
10
378.57726683909186
20
-334.24788645617355
30
1.27675647831893e-14
10
378.7770551777046
20
-334.37650680606276
30
1.3877787807814457e-14
10
379.1069952410727
20
-334.70391833515214
30
1.3877787807814457e-14
10
379.23263750209014
20
-334.89147916671499
30
1.4432899320127035e-14
10
379.38429433437142
20
-335.2392017516006
30
1.4432899320127035e-14
10
379.42832801288444
20
-335.38578612099673
30
1.3322676295501878e-14
10
379.48653173224437
20
-335.68864336514906
30
1.3322676295501878e-14
10
379.50000668447342
20
-335.84432233406562
30
1.3877787807814457e-14
10
379.50000668447342
20
-335.99999991059292
30
1.3877787807814457e-14
0
LINE
5
113
100
AcDbEntity
8
0
100
AcDbLine
10
377.50000668447342
20
-333.99999991059292
30
1.3877787807814457e-14
11
112.50000668447349
21
-333.99999991059292
31
6.6613381477509392e-15
0
SPLINE
5
114
100
AcDbEntity
8
0
100
AcDbSpline
70
0
71
3
72
16
73
12
74
0
42
0.000000001
43
0.0000000001
44
0.0000000001
40
0
40
0
40
0
40
0
40
0.087994581571947866
40
0.087994581571947866
40
0.15977047881887854
40
0.15977047881887854
40
0.22796846915683605
40
0.22796846915683605
40
0.2739271831986248
40
0.2739271831986248
40
0.32073344234547335
40
0.32073344234547335
40
0.32073344234547335
40
0.32073344234547335
10
110.50000668447346
20
-335.99999991059292
30
1.3877787807814457e-14
10
110.50000668447346
20
-335.7066846386864
30
1.3877787807814457e-14
10
110.54784153942016
20
-335.41464448274974
30
1.3877787807814457e-14
10
110.74789323005412
20
-334.92273975597436
30
1.3877787807814457e-14
10
110.87651357994335
20
-334.72295141736168
30
1.3877787807814457e-14
10
111.2039251090327
20
-334.39301135399364
30
1.3877787807814457e-14
10
111.39148594059542
20
-334.26736909297625
30
1.3877787807814457e-14
10
111.73920852548119
20
-334.11571226069492
30
1.3877787807814457e-14
10
111.88579289487734
20
-334.07167858218179
30
1.3877787807814457e-14
10
112.1886501390297
20
-334.01347486282197
30
1.3877787807814457e-14
10
112.34432910794624
20
-333.99999991059292
30
1.3877787807814457e-14
10
112.50000668447349
20
-333.99999991059292
30
1.3877787807814457e-14
0
LINE
5
115
100
AcDbEntity
8
0
100
AcDbLine
10
110.50000668447346
20
-335.99999991059292
30
1.3877787807814457e-14
11
110.50000668447346
21
-357.99999903028493
31
0
0
ARC
5
116
100
AcDbEntity
8
0
100
AcDbCircle
10
112.50000668447345
20
-357.99999903028493
30
1.4432899320127035e-14
40
1.9999999999999929
210
-7.2164496600635428e-15
220
0
230
1
100
AcDbArc
50
180
51
270
0
LINE
5
117
100
AcDbEntity
8
0
100
AcDbLine
10
112.50000668447345
20
-359.99999903028493
30
1.4432899320127035e-14
11
118.5000220899817
21
-359.99999903028493
31
1.4432899320127035e-14
0
ARC
5
118
100
AcDbEntity
8
0
100
AcDbCircle
10
118.5000220899817
20
-361.99999903028498
30
1.4432899320127035e-14
40
1.9999999999999929
210
0
220
0
230
1
100
AcDbArc
50
0
51
90
0
LINE
5
119
100
AcDbEntity
8
0
100
AcDbLine
10
120.50002208998168
20
-361.99999903028498
30
1.4432899320127035e-14
11
120.50002208998168
21
-362.99999903028493
31
1.4432899320127035e-14
0
ARC
5
120
100
AcDbEntity
8
0
100
AcDbCircle
10
118.5000220899817
20
-362.99999903028493
30
1.4432899320127035e-14
40
2.0000000000000284
210
0
220
0
230
1
100
AcDbArc
50
-90
51
0
0
LINE
5
121
100
AcDbEntity
8
0
100
AcDbLine
10
118.5000220899817
20
-364.99999903028493
30
1.4432899320127035e-14
11
112.50000668447345
21
-364.99999903028493
31
1.4432899320127035e-14
0
ARC
5
122
100
AcDbEntity
8
0
100
AcDbCircle
10
112.50000668447345
20
-366.99999903028498
30
1.4432899320127035e-14
40
2.0000000000000284
210
0
220
-0
230
1
100
AcDbArc
50
90
51
180
0
LINE
5
123
100
AcDbEntity
8
0
100
AcDbLine
10
110.50000668447346
20
-366.99999903028498
30
1.4432899320127035e-14
11
110.50000668447346
21
-397.99999991059286
31
0
0
SPLINE
5
124
100
AcDbEntity
8
0
100
AcDbSpline
70
0
71
3
72
16
73
12
74
0
42
0.000000001
43
0.0000000001
44
0.0000000001
40
0
40
0
40
0
40
0
40
0.087994581572104477
40
0.087994581572104477
40
0.15977047881916012
40
0.15977047881916012
40
0.22796846915725094
40
0.22796846915725094
40
0.27392718319928849
40
0.27392718319928849
40
0.32073344234654194
40
0.32073344234654194
40
0.32073344234654194
40
0.32073344234654194
10
112.50000668447345
20
-399.99999991059292
30
1.4988010832439613e-14
10
112.20669141256643
20
-399.99999991059292
30
1.4988010832439613e-14
10
111.91465125663015
20
-399.95216505564599
30
1.3877787807814457e-14
10
111.42274652985513
20
-399.75211336501224
30
1.3877787807814457e-14
10
111.22295819124226
20
-399.62349301512296
30
1.27675647831893e-14
10
110.89301812787397
20
-399.29608148603342
30
1.27675647831893e-14
10
110.7673758668566
20
-399.10852065447045
30
1.3322676295501878e-14
10
110.61571903457531
20
-398.76079806958472
30
1.3322676295501878e-14
10
110.5716853560623
20
-398.61421370018826
30
1.3322676295501878e-14
10
110.51348163670262
20
-398.31135645603683
30
1.3322676295501878e-14
10
110.50000668447346
20
-398.1556774871205
30
1.4432899320127035e-14
10
110.50000668447346
20
-397.99999991059286
30
1.4432899320127035e-14
0
LINE
5
125
100
AcDbEntity
8
0
100
AcDbLine
10
112.50000668447345
20
-399.99999991059292
30
1.4988010832439613e-14
11
173.00000000000009
21
-399.99999991059292
31
1.4432899320127035e-14
0
ARC
5
126
100
AcDbEntity
8
0
100
AcDbCircle
10
173.00000000000009
20
-397.99999991059286
30
1.4432899320127035e-14
40
2.0000000000000284
210
0
220
0
230
1
100
AcDbArc
50
-90
51
0
0
LINE
5
127
100
AcDbEntity
8
0
100
AcDbLine
10
175.00000000000006
20
-397.99999991059286
30
1.4432899320127035e-14
11
175.00000000000006
21
-395.00000266141677
31
1.4432899320127035e-14
0
ARC
5
128
100
AcDbEntity
8
0
100
AcDbCircle
10
180.00000000000006
20
-395.00000266141677
30
1.4432899320127035e-14
40
5
210
0
220
-0
230
1
100
AcDbArc
50
90
51
180
0
LINE
5
129
100
AcDbEntity
8
0
100
AcDbLine
10
180.00000000000006
20
-390.00000266141677
30
1.4432899320127035e-14
11
190.00000000000006
21
-390.00000266141677
31
1.4432899320127035e-14
0
ARC
5
130
100
AcDbEntity
8
0
100
AcDbCircle
10
190.00000000000006
20
-395.00000266141677
30
1.4432899320127035e-14
40
5
210
0
220
0
230
1
100
AcDbArc
50
0
51
90
0
LINE
5
131
100
AcDbEntity
8
0
100
AcDbLine
10
195.00000000000006
20
-395.00000266141677
30
1.4432899320127035e-14
11
195.00000000000006
21
-397.99999991059286
31
1.4432899320127035e-14
0
ARC
5
132
100
AcDbEntity
8
0
100
AcDbCircle
10
197.00000000000006
20
-397.99999991059286
30
1.4432899320127035e-14
40
1.9999999999999929
210
0
220
0
230
1
100
AcDbArc
50
180
51
270
0
LINE
5
133
100
AcDbEntity
8
0
100
AcDbLine
10
197.00000000000006
20
-399.99999991059292
30
1.4432899320127035e-14
11
293
21
-399.99999991059292
31
1.4432899320127035e-14
0
ARC
5
134
100
AcDbEntity
8
0
100
AcDbCircle
10
293
20
-397.99999991059286
30
1.4432899320127035e-14
40
2.0000000000000284
210
0
220
0
230
1
100
AcDbArc
50
-90
51
0
0
LINE
5
135
100
AcDbEntity
8
0
100
AcDbLine
10
295
20
-397.99999991059286
30
1.4432899320127035e-14
11
295
21
-395
31
1.4432899320127035e-14
0
ARC
5
136
100
AcDbEntity
8
0
100
AcDbCircle
10
300
20
-395
30
1.4432899320127035e-14
40
5
210
0
220
-0
230
1
100
AcDbArc
50
90
51
180
0
LINE
5
137
100
AcDbEntity
8
0
100
AcDbLine
10
300
20
-390
30
1.4432899320127035e-14
11
310
21
-390
31
1.4432899320127035e-14
0
ARC
5
138
100
AcDbEntity
8
0
100
AcDbCircle
10
310
20
-395
30
1.4432899320127035e-14
40
5
210
0
220
0
230
1
100
AcDbArc
50
0
51
90
0
LINE
5
139
100
AcDbEntity
8
0
100
AcDbLine
10
315
20
-395
30
1.4432899320127035e-14
11
315
21
-397.99999991059286
31
1.4432899320127035e-14
0
ENDSEC
0
SECTION
2
OBJECTS
0
DICTIONARY
5
C
100
AcDbDictionary
3
ACAD_GROUP
350
D
3
ACAD_MLINESTYLE
350
17
0
DICTIONARY
5
D
100
AcDbDictionary
0
DICTIONARY
5
1A
330
C
100
AcDbDictionary
0
DICTIONARY
5
17
100
AcDbDictionary
0
ENDSEC
0
EOF
