0
SECTION
2
HEADER
9
$INSUNITS
70
4
9
$ACADVER
1
AC1014
9
$HANDSEED
5
FFFF
0
ENDSEC
0
SECTION
2
TABLES
0
TABLE
2
VPORT
5
8
100
AcDbSymbolTable
0
ENDTAB
0
TABLE
2
LTYPE
5
5
100
AcDbSymbolTable
0
LTYPE
5
14
100
AcDbSymbolTableRecord
100
AcDbLinetypeTableRecord
2
BYBLOCK
70
0
0
LTYPE
5
15
100
AcDbSymbolTableRecord
100
AcDbLinetypeTableRecord
2
BYLAYER
70
0
0
LTYPE
5
16
100
AcDbSymbolTableRecord
100
AcDbLinetypeTableRecord
2
DASHED
70
0
3
Dashed __ __ __ __ __ __ __ __ __ __ __ __ __ _
72
65
73
2
40
0.75
49
0.5
74
0
49
-0.25
74
0
0
ENDTAB
0
TABLE
2
LAYER
5
2
100
AcDbSymbolTable
70
3
0
LAYER
5
50
100
AcDbSymbolTableRecord
100
AcDbLayerTableRecord
2
1
70
0
62
7
6
DASHED
0
LAYER
5
51
100
AcDbSymbolTableRecord
100
AcDbLayerTableRecord
2
0
70
0
62
7
6
CONTINUOUS
0
ENDTAB
0
TABLE
2
STYLE
5
3
100
AcDbSymbolTable
70
1
0
STYLE
5
11
100
AcDbSymbolTableRecord
100
AcDbTextStyleTableRecord
2
STANDARD
70
0
0
ENDTAB
0
TABLE
2
VIEW
5
6
100
AcDbSymbolTable
70
0
0
ENDTAB
0
TABLE
2
UCS
5
7
100
AcDbSymbolTable
70
0
0
ENDTAB
0
TABLE
2
APPID
5
9
100
AcDbSymbolTable
70
2
0
APPID
5
12
100
AcDbSymbolTableRecord
100
AcDbRegAppTableRecord
2
ACAD
70
0
0
ENDTAB
0
TABLE
2
DIMSTYLE
5
A
100
AcDbSymbolTable
70
1
0
ENDTAB
0
TABLE
2
BLOCK_RECORD
5
1
100
AcDbSymbolTable
70
1
0
BLOCK_RECORD
5
1F
100
AcDbSymbolTableRecord
100
AcDbBlockTableRecord
2
*MODEL_SPACE
0
BLOCK_RECORD
5
1B
100
AcDbSymbolTableRecord
100
AcDbBlockTableRecord
2
*PAPER_SPACE
0
ENDTAB
0
ENDSEC
0
SECTION
2
BLOCKS
0
BLOCK
5
20
100
AcDbEntity
100
AcDbBlockBegin
2
*MODEL_SPACE
0
ENDBLK
5
21
100
AcDbEntity
100
AcDbBlockEnd
0
BLOCK
5
1C
100
AcDbEntity
100
AcDbBlockBegin
2
*PAPER_SPACE
0
ENDBLK
5
1D
100
AcDbEntity
100
AcDbBlockEnd
0
ENDSEC
0
SECTION
2
ENTITIES
0
SPLINE
5
100
100
AcDbEntity
8
0
100
AcDbSpline
70
0
71
3
72
16
73
12
74
0
42
0.000000001
43
0.0000000001
44
0.0000000001
40
0
40
0
40
0
40
0
40
0.087994581572084105
40
0.087994581572084105
40
0.15977047881907247
40
0.15977047881907247
40
0.22796846915703134
40
0.22796846915703134
40
0.27392718319880471
40
0.27392718319880471
40
0.32073344234564372
40
0.32073344234564372
40
0.32073344234564372
40
0.32073344234564372
10
-112.50000668447434
20
-397.93933982819652
30
5.5511151231257827e-16
10
-112.50000668447434
20
-398.23265510010344
30
5.5511151231257827e-16
10
-112.54784153942119
20
-398.52469525603976
30
1.9428902930940239e-15
10
-112.74789323005493
20
-399.01659998281474
30
1.9428902930940239e-15
10
-112.87651357994417
20
-399.21638832142764
30
1.9428902930940239e-15
10
-113.20392510903358
20
-399.54632838479586
30
1.9428902930940239e-15
10
-113.3914859405963
20
-399.67197064581319
30
1.9428902930940243e-15
10
-113.73920852548213
20
-399.82362747809452
30
1.9428902930940243e-15
10
-113.88579289487829
20
-399.8676611566076
30
1.9428902930940239e-15
10
-114.18865013903056
20
-399.92586487596736
30
1.9428902930940239e-15
10
-114.34432910794705
20
-399.93933982819658
30
5.5511151231257827e-16
10
-114.50000668447433
20
-399.93933982819658
30
5.5511151231257827e-16
0
LINE
5
101
100
AcDbEntity
8
0
100
AcDbLine
10
-112.50000668447434
20
-397.93933982819652
30
5.5511151231257827e-16
11
-112.50000668447402
21
-265.93933982819658
31
-1.3877787807814457e-16
0
SPLINE
5
102
100
AcDbEntity
8
0
100
AcDbSpline
70
0
71
3
72
16
73
12
74
0
42
0.000000001
43
0.0000000001
44
0.0000000001
40
0
40
0
40
0
40
0
40
0.087994581572133829
40
0.087994581572133829
40
0.15977047881928547
40
0.15977047881928547
40
0.22796846915739249
40
0.22796846915739249
40
0.27392718319929282
40
0.27392718319929282
40
0.32073344234639956
40
0.32073344234639956
40
0.32073344234639956
40
0.32073344234639956
10
-114.50000668447413
20
-263.93933982819652
30
2.7755575615628914e-16
10
-114.20669141256703
20
-263.93933982819652
30
2.7755575615628914e-16
10
-113.91465125663078
20
-263.98717468314339
30
1.0532116217799377e-15
10
-113.42274652985554
20
-264.18722637377732
30
1.0532116217799377e-15
10
-113.22295819124292
20
-264.31584672366648
30
8.6121264148623343e-16
10
-112.89301812787502
20
-264.64325825275563
30
8.6121264148623343e-16
10
-112.76737586685758
20
-264.83081908431802
30
7.8125230901759395e-16
10
-112.6157190345759
20
-265.17854166920449
30
7.8125230901759395e-16
10
-112.5716853560629
20
-265.32512603860113
30
7.860877795164061e-16
10
-112.51348163670326
20
-265.62798328275244
30
7.860877795164061e-16
10
-112.50000668447402
20
-265.78366225166866
30
-2.7755575615628914e-16
10
-112.50000668447402
20
-265.93933982819658
30
-2.7755575615628914e-16
0
LINE
5
103
100
AcDbEntity
8
0
100
AcDbLine
10
-114.50000668447413
20
-263.93933982819652
30
2.7755575615628914e-16
11
-375.50000668447399
21
-263.93933982819595
31
4.163336342344337e-16
0
SPLINE
5
104
100
AcDbEntity
8
0
100
AcDbSpline
70
0
71
3
72
16
73
12
74
0
42
0.000000001
43
0.0000000001
44
0.0000000001
40
0
40
0
40
0
40
0
40
0.087994581572115399
40
0.087994581572115399
40
0.15977047881919992
40
0.15977047881919992
40
0.22796846915733041
40
0.22796846915733041
40
0.27392718319922971
40
0.27392718319922971
40
0.32073344234608475
40
0.32073344234608475
40
0.32073344234608475
40
0.32073344234608475
10
-377.50000668447399
20
-265.93933982819601
30
2.9114092851938026e-45
10
-377.50000668447399
20
-265.64602455628898
30
2.908198173943128e-45
10
-377.45217182952706
20
-265.35398440035272
30
2.9050010222084822e-45
10
-377.25212013889336
20
-264.86207967357763
30
2.8996158242536068e-45
10
-377.12349978900414
20
-264.66229133496489
30
2.8974286125966691e-45
10
-376.79608825991471
20
-264.33235127159668
30
2.8938165461582542e-45
10
-376.60852742835186
20
-264.20670901057929
30
2.8924410593815513e-45
10
-376.26080484346642
20
-264.05505217829807
30
2.8907807743332697e-45
10
-376.11422047407046
20
-264.011018499785
30
2.890298709285778e-45
10
-375.81136322991773
20
-263.95281478042506
30
2.8896615156720509e-45
10
-375.65568426100128
20
-263.93933982819595
30
2.8895139966887267e-45
10
-375.50000668447399
20
-263.93933982819595
30
2.8895139966887267e-45
0
LINE
5
105
100
AcDbEntity
8
0
100
AcDbLine
10
-377.50000668447399
20
-265.93933982819601
30
2.9114092851938026e-45
11
-377.50000668447427
21
-397.93933982819595
31
-4.163336342344337e-16
0
SPLINE
5
106
100
AcDbEntity
8
0
100
AcDbSpline
70
0
71
3
72
16
73
12
74
0
42
0.000000001
43
0.0000000001
44
0.0000000001
40
0
40
0
40
0
40
0
40
0.087994581572111305
40
0.087994581572111305
40
0.15977047881918197
40
0.15977047881918197
40
0.2279684691572629
40
0.2279684691572629
40
0.27392718319914539
40
0.27392718319914539
40
0.32073344234607043
40
0.32073344234607043
40
0.32073344234607043
40
0.32073344234607043
10
-375.50000668447422
20
-399.93933982819601
30
-5.5511151231257827e-16
10
-375.79332195638131
20
-399.93933982819601
30
-5.5511151231257827e-16
10
-376.08536211231751
20
-399.89150497324908
30
-1.1141891767204599e-15
10
-376.5772668390926
20
-399.69145328261533
30
-1.1141891767204599e-15
10
-376.77705517770539
20
-399.56283293272611
30
-1.385178790463524e-15
10
-377.10699524107355
20
-399.23542140363674
30
-1.385178790463524e-15
10
-377.23263750209094
20
-399.04786057207394
30
-1.643808069778075e-15
10
-377.38429433437227
20
-398.70013798718833
30
-1.643808069778075e-15
10
-377.42832801288529
20
-398.55355361779209
30
-1.8021663627681229e-15
10
-377.48653173224517
20
-398.25069637363981
30
-1.8021663627681229e-15
10
-377.50000668447427
20
-398.09501740472331
30
-1.6653345369377348e-15
10
-377.50000668447427
20
-397.93933982819595
30
-1.6653345369377348e-15
0
LINE
5
107
100
AcDbEntity
8
0
100
AcDbLine
10
-375.50000668447422
20
-399.93933982819601
30
-5.5511151231257827e-16
11
-114.50000668447433
21
-399.93933982819658
31
5.5511151231257817e-16
0
ENDSEC
0
SECTION
2
OBJECTS
0
DICTIONARY
5
C
100
AcDbDictionary
3
ACAD_GROUP
350
D
3
ACAD_MLINESTYLE
350
17
0
DICTIONARY
5
D
100
AcDbDictionary
0
DICTIONARY
5
1A
330
C
100
AcDbDictionary
0
DICTIONARY
5
17
100
AcDbDictionary
0
ENDSEC
0
EOF
